<svg width="295" height="70" viewBox="0 0 295 70" fill="none" xmlns="http://www.w3.org/2000/svg">
<path d="M96.0676 68.9999L121.39 0.198608H132.093L108.299 68.9999H96.0676ZM147.955 68.9999L124.257 0.198608H135.533L160.76 68.9999H147.955ZM109.159 41.9572H146.809V51.8952H109.159V41.9572Z" fill="black"/>
<path d="M186.19 69.9555C181.285 69.9555 176.953 68.8725 173.194 66.7066C169.499 64.5406 166.569 61.5465 164.403 57.7242C162.301 53.8382 161.25 49.4425 161.25 44.5372C161.25 39.632 162.301 35.3 164.403 31.5414C166.569 27.7191 169.499 24.725 173.194 22.559C176.953 20.3931 181.285 19.3101 186.19 19.3101C190.204 19.3101 193.835 20.0745 197.084 21.6035C200.333 23.0687 203.008 25.1709 205.111 27.9103C207.213 30.5859 208.551 33.7074 209.124 37.2749H197.561C196.861 34.663 195.523 32.6244 193.548 31.1592C191.573 29.694 189.184 28.9614 186.381 28.9614C183.769 28.9614 181.508 29.5984 179.597 30.8725C177.749 32.1466 176.316 33.9622 175.297 36.3193C174.277 38.6764 173.768 41.4157 173.768 44.5372C173.768 47.7225 174.277 50.4937 175.297 52.8507C176.316 55.2078 177.781 57.0553 179.692 58.3931C181.603 59.6672 183.833 60.3042 186.381 60.3042C189.184 60.3042 191.573 59.5716 193.548 58.1064C195.523 56.6412 196.861 54.6026 197.561 51.9907H209.124C208.551 55.5582 207.181 58.7116 205.015 61.4509C202.913 64.1265 200.237 66.2288 196.988 67.7577C193.803 69.2229 190.204 69.9555 186.19 69.9555Z" fill="black"/>
<path d="M237.301 69.9555C231.313 69.9555 226.886 68.554 224.019 65.751C221.216 62.8843 219.814 58.616 219.814 52.9463V9.181L231.95 4.68981V53.233C231.95 55.5901 232.587 57.3419 233.861 58.4886C235.135 59.6353 237.142 60.2087 239.881 60.2087C240.964 60.2087 241.92 60.145 242.748 60.0175C243.64 59.8264 244.468 59.6035 245.233 59.3486V68.7133C244.468 69.0955 243.385 69.3822 241.984 69.5733C240.582 69.8281 239.021 69.9555 237.301 69.9555ZM210.45 29.7258V20.2657H245.233V29.7258H210.45Z" fill="black"/>
<path d="M282.062 68.9999C281.743 67.7258 281.489 66.3243 281.297 64.7954C281.17 63.2665 281.106 61.4191 281.106 59.2531H280.724V36.1282C280.724 33.58 279.991 31.6688 278.526 30.3947C277.125 29.0569 274.959 28.388 272.028 28.388C269.162 28.388 266.868 28.9295 265.148 30.0125C263.492 31.0318 262.473 32.5289 262.09 34.5037H250.528C251.038 29.9807 253.204 26.3176 257.026 23.5146C260.848 20.7116 265.976 19.3101 272.411 19.3101C279.1 19.3101 284.164 20.839 287.604 23.8968C291.044 26.891 292.764 31.3185 292.764 37.1793V59.2531C292.764 60.782 292.86 62.3428 293.051 63.9354C293.306 65.528 293.656 67.2162 294.102 68.9999H282.062ZM265.148 69.9555C260.243 69.9555 256.325 68.7451 253.395 66.3243C250.528 63.8398 249.095 60.5272 249.095 56.3864C249.095 51.927 250.719 48.3914 253.968 45.7795C257.217 43.1676 261.804 41.4157 267.728 40.5238L282.922 38.2305V45.875L269.735 47.8818C266.868 48.3277 264.702 49.124 263.237 50.2707C261.836 51.4174 261.135 53.01 261.135 55.0486C261.135 56.896 261.804 58.3294 263.141 59.3486C264.479 60.3042 266.327 60.782 268.684 60.782C272.124 60.782 274.991 59.922 277.284 58.202C279.577 56.4819 280.724 54.3797 280.724 51.8952L282.062 59.2531C280.788 62.7569 278.685 65.4325 275.755 67.2799C272.888 69.0636 269.353 69.9555 265.148 69.9555Z" fill="black"/>
<path d="M32.1966 37.7046L14.7585 0.752154H41.9994L58.1611 35.4999L73.9032 68.7519H46.848L37.2134 48.3356C37.3017 49.0721 37.3472 49.8218 37.3472 50.5822C37.3472 60.8953 28.9867 69.2557 18.6736 69.2557C8.36045 69.2557 0 60.8953 0 50.5822C0 40.269 8.36045 31.9086 18.6736 31.9086C23.9943 31.9086 28.7953 34.1339 32.1966 37.7046Z" fill="black"/>
</svg>
